<mxfile host="app.diagrams.net" modified="2022-03-18T15:35:23.626Z" agent="5.0 (Windows NT 10.0; Win64; x64) AppleWebKit/537.36 (KHTML, like Gecko) Chrome/99.0.4844.74 Safari/537.36" etag="yKBT9ytvQkDPbQZS5_lJ" version="17.1.3" type="github">
  <diagram id="AyhBUSCjqHSWrEC1XcgD" name="Page-1">
    <mxGraphModel dx="1377" dy="877" grid="0" gridSize="10" guides="1" tooltips="1" connect="1" arrows="1" fold="1" page="1" pageScale="1" pageWidth="827" pageHeight="1169" math="0" shadow="0">
      <root>
        <mxCell id="0" />
        <mxCell id="1" parent="0" />
        <mxCell id="Q8M-9PWr-8_WYGchIMJM-57" value="" style="group" vertex="1" connectable="0" parent="1">
          <mxGeometry x="163" y="358" width="585" height="301" as="geometry" />
        </mxCell>
        <mxCell id="Q8M-9PWr-8_WYGchIMJM-38" value="ALT" style="shape=umlFrame;whiteSpace=wrap;html=1;fillColor=#d5e8d4;strokeColor=#009900;width=45;height=30;" vertex="1" parent="Q8M-9PWr-8_WYGchIMJM-57">
          <mxGeometry width="585" height="301" as="geometry" />
        </mxCell>
        <mxCell id="Q8M-9PWr-8_WYGchIMJM-41" value="[Formulaire Valide]" style="text;html=1;strokeColor=none;fillColor=none;align=center;verticalAlign=middle;whiteSpace=wrap;rounded=0;fontSize=16;fontColor=#009900;" vertex="1" parent="Q8M-9PWr-8_WYGchIMJM-57">
          <mxGeometry x="93" y="6.072046109510087" width="60" height="26.02305475504323" as="geometry" />
        </mxCell>
        <mxCell id="Q8M-9PWr-8_WYGchIMJM-3" value="" style="shape=umlLifeline;participant=umlActor;perimeter=lifelinePerimeter;whiteSpace=wrap;html=1;container=1;collapsible=0;recursiveResize=0;verticalAlign=top;spacingTop=36;outlineConnect=0;" vertex="1" parent="1">
          <mxGeometry x="202" y="102" width="20" height="1076" as="geometry" />
        </mxCell>
        <mxCell id="Q8M-9PWr-8_WYGchIMJM-5" value="IHM" style="shape=umlLifeline;perimeter=lifelinePerimeter;whiteSpace=wrap;html=1;container=1;collapsible=0;recursiveResize=0;outlineConnect=0;fillColor=#dae8fc;strokeColor=#6c8ebf;" vertex="1" parent="1">
          <mxGeometry x="315" y="102" width="100" height="1059" as="geometry" />
        </mxCell>
        <mxCell id="Q8M-9PWr-8_WYGchIMJM-20" value="" style="html=1;points=[];perimeter=orthogonalPerimeter;fillColor=#dae8fc;strokeColor=#6c8ebf;" vertex="1" parent="Q8M-9PWr-8_WYGchIMJM-5">
          <mxGeometry x="45" y="174" width="10" height="77" as="geometry" />
        </mxCell>
        <mxCell id="Q8M-9PWr-8_WYGchIMJM-26" value="" style="html=1;points=[];perimeter=orthogonalPerimeter;fillColor=#dae8fc;strokeColor=#6c8ebf;" vertex="1" parent="Q8M-9PWr-8_WYGchIMJM-5">
          <mxGeometry x="45" y="299" width="10" height="243" as="geometry" />
        </mxCell>
        <mxCell id="Q8M-9PWr-8_WYGchIMJM-14" value="" style="html=1;points=[];perimeter=orthogonalPerimeter;fillColor=#dae8fc;strokeColor=#6c8ebf;" vertex="1" parent="Q8M-9PWr-8_WYGchIMJM-5">
          <mxGeometry x="45" y="72" width="10" height="75" as="geometry" />
        </mxCell>
        <mxCell id="Q8M-9PWr-8_WYGchIMJM-25" value="remplir le formulaire" style="html=1;verticalAlign=bottom;endArrow=block;rounded=0;edgeStyle=orthogonalEdgeStyle;" edge="1" parent="Q8M-9PWr-8_WYGchIMJM-5" source="Q8M-9PWr-8_WYGchIMJM-3">
          <mxGeometry relative="1" as="geometry">
            <mxPoint x="-87.31965517241372" y="273.99965517241384" as="sourcePoint" />
            <mxPoint x="45" y="325" as="targetPoint" />
            <Array as="points">
              <mxPoint x="-49" y="325" />
              <mxPoint x="-49" y="325" />
            </Array>
          </mxGeometry>
        </mxCell>
        <mxCell id="Q8M-9PWr-8_WYGchIMJM-44" value="" style="html=1;points=[];perimeter=orthogonalPerimeter;fillColor=#dae8fc;strokeColor=#6c8ebf;" vertex="1" parent="Q8M-9PWr-8_WYGchIMJM-5">
          <mxGeometry x="45" y="610" width="10" height="77" as="geometry" />
        </mxCell>
        <mxCell id="Q8M-9PWr-8_WYGchIMJM-45" value="cliquer sur modifer un projet" style="html=1;verticalAlign=bottom;endArrow=block;entryX=-0.001;entryY=0.167;rounded=0;edgeStyle=orthogonalEdgeStyle;entryDx=0;entryDy=0;entryPerimeter=0;" edge="1" parent="Q8M-9PWr-8_WYGchIMJM-5" source="Q8M-9PWr-8_WYGchIMJM-3">
          <mxGeometry relative="1" as="geometry">
            <mxPoint x="-85.16666666666674" y="622" as="sourcePoint" />
            <Array as="points">
              <mxPoint x="-72" y="622" />
              <mxPoint x="-72" y="622" />
            </Array>
            <mxPoint x="45.99000000000001" y="621.8589999999999" as="targetPoint" />
          </mxGeometry>
        </mxCell>
        <mxCell id="Q8M-9PWr-8_WYGchIMJM-50" value="" style="html=1;points=[];perimeter=orthogonalPerimeter;fillColor=#dae8fc;strokeColor=#6c8ebf;" vertex="1" parent="Q8M-9PWr-8_WYGchIMJM-5">
          <mxGeometry x="46" y="699" width="10" height="91" as="geometry" />
        </mxCell>
        <mxCell id="Q8M-9PWr-8_WYGchIMJM-12" value="Serveur de base de donnÃ©es" style="shape=umlLifeline;perimeter=lifelinePerimeter;whiteSpace=wrap;html=1;container=1;collapsible=0;recursiveResize=0;outlineConnect=0;fillColor=#dae8fc;strokeColor=#6c8ebf;" vertex="1" parent="1">
          <mxGeometry x="658" y="102" width="100" height="957" as="geometry" />
        </mxCell>
        <mxCell id="Q8M-9PWr-8_WYGchIMJM-32" value="" style="html=1;points=[];perimeter=orthogonalPerimeter;fillColor=#dae8fc;strokeColor=#6c8ebf;" vertex="1" parent="Q8M-9PWr-8_WYGchIMJM-12">
          <mxGeometry x="45" y="386" width="10" height="156" as="geometry" />
        </mxCell>
        <mxCell id="Q8M-9PWr-8_WYGchIMJM-55" value="" style="html=1;points=[];perimeter=orthogonalPerimeter;fillColor=#dae8fc;strokeColor=#6c8ebf;" vertex="1" parent="Q8M-9PWr-8_WYGchIMJM-12">
          <mxGeometry x="45" y="704" width="10" height="84" as="geometry" />
        </mxCell>
        <mxCell id="Q8M-9PWr-8_WYGchIMJM-13" value="Serveur d&#39;application" style="shape=umlLifeline;perimeter=lifelinePerimeter;whiteSpace=wrap;html=1;container=1;collapsible=0;recursiveResize=0;outlineConnect=0;fillColor=#dae8fc;strokeColor=#6c8ebf;" vertex="1" parent="1">
          <mxGeometry x="494" y="102" width="100" height="1014" as="geometry" />
        </mxCell>
        <mxCell id="Q8M-9PWr-8_WYGchIMJM-19" value="" style="html=1;points=[];perimeter=orthogonalPerimeter;fillColor=#dae8fc;strokeColor=#6c8ebf;" vertex="1" parent="Q8M-9PWr-8_WYGchIMJM-13">
          <mxGeometry x="45" y="114" width="10" height="51" as="geometry" />
        </mxCell>
        <mxCell id="Q8M-9PWr-8_WYGchIMJM-23" value="" style="html=1;points=[];perimeter=orthogonalPerimeter;fillColor=#dae8fc;strokeColor=#6c8ebf;" vertex="1" parent="Q8M-9PWr-8_WYGchIMJM-13">
          <mxGeometry x="45" y="190" width="10" height="42" as="geometry" />
        </mxCell>
        <mxCell id="Q8M-9PWr-8_WYGchIMJM-30" value="" style="html=1;points=[];perimeter=orthogonalPerimeter;fillColor=#dae8fc;strokeColor=#6c8ebf;" vertex="1" parent="Q8M-9PWr-8_WYGchIMJM-13">
          <mxGeometry x="45" y="315" width="10" height="228" as="geometry" />
        </mxCell>
        <mxCell id="Q8M-9PWr-8_WYGchIMJM-31" value="validation&lt;br&gt;des champs" style="edgeStyle=orthogonalEdgeStyle;html=1;align=left;spacingLeft=2;endArrow=block;rounded=0;exitX=1.034;exitY=0.02;exitDx=0;exitDy=0;exitPerimeter=0;entryX=1.055;entryY=0.088;entryDx=0;entryDy=0;entryPerimeter=0;" edge="1" parent="Q8M-9PWr-8_WYGchIMJM-13">
          <mxGeometry relative="1" as="geometry">
            <mxPoint x="55.33999999999992" y="342.02" as="sourcePoint" />
            <Array as="points">
              <mxPoint x="84" y="342" />
              <mxPoint x="84" y="363" />
              <mxPoint x="56" y="363" />
            </Array>
            <mxPoint x="55.549999999999955" y="362.48800000000006" as="targetPoint" />
          </mxGeometry>
        </mxCell>
        <mxCell id="Q8M-9PWr-8_WYGchIMJM-47" value="" style="html=1;points=[];perimeter=orthogonalPerimeter;fillColor=#dae8fc;strokeColor=#6c8ebf;" vertex="1" parent="Q8M-9PWr-8_WYGchIMJM-13">
          <mxGeometry x="46" y="623" width="10" height="51" as="geometry" />
        </mxCell>
        <mxCell id="Q8M-9PWr-8_WYGchIMJM-48" value="demander_projet()" style="html=1;verticalAlign=bottom;endArrow=block;rounded=0;entryX=-0.008;entryY=0.167;entryDx=0;entryDy=0;entryPerimeter=0;edgeStyle=orthogonalEdgeStyle;" edge="1" parent="Q8M-9PWr-8_WYGchIMJM-13" target="Q8M-9PWr-8_WYGchIMJM-47">
          <mxGeometry width="80" relative="1" as="geometry">
            <mxPoint x="-125" y="632" as="sourcePoint" />
            <mxPoint x="-46" y="637" as="targetPoint" />
            <Array as="points">
              <mxPoint x="-126" y="632" />
              <mxPoint x="-40" y="632" />
            </Array>
          </mxGeometry>
        </mxCell>
        <mxCell id="Q8M-9PWr-8_WYGchIMJM-49" value="Afficher le projet" style="html=1;verticalAlign=bottom;endArrow=open;dashed=1;endSize=8;rounded=0;edgeStyle=orthogonalEdgeStyle;entryX=1.025;entryY=0.726;entryDx=0;entryDy=0;entryPerimeter=0;" edge="1" parent="Q8M-9PWr-8_WYGchIMJM-13" target="Q8M-9PWr-8_WYGchIMJM-44">
          <mxGeometry relative="1" as="geometry">
            <mxPoint x="-126" y="665" as="targetPoint" />
            <mxPoint x="46" y="666" as="sourcePoint" />
            <Array as="points" />
          </mxGeometry>
        </mxCell>
        <mxCell id="Q8M-9PWr-8_WYGchIMJM-61" value="" style="html=1;points=[];perimeter=orthogonalPerimeter;fillColor=#dae8fc;strokeColor=#6c8ebf;" vertex="1" parent="Q8M-9PWr-8_WYGchIMJM-13">
          <mxGeometry x="45" y="821" width="10" height="51" as="geometry" />
        </mxCell>
        <mxCell id="Q8M-9PWr-8_WYGchIMJM-62" value="Afficher les projets" style="html=1;verticalAlign=bottom;endArrow=open;dashed=1;endSize=8;rounded=0;edgeStyle=orthogonalEdgeStyle;exitX=-0.122;exitY=0.616;exitDx=0;exitDy=0;exitPerimeter=0;" edge="1" parent="Q8M-9PWr-8_WYGchIMJM-13">
          <mxGeometry relative="1" as="geometry">
            <mxPoint x="-124" y="856.4000000000001" as="targetPoint" />
            <mxPoint x="43.77999999999997" y="856.4159999999999" as="sourcePoint" />
            <Array as="points">
              <mxPoint x="22" y="856" />
              <mxPoint x="22" y="856" />
            </Array>
          </mxGeometry>
        </mxCell>
        <mxCell id="Q8M-9PWr-8_WYGchIMJM-63" value="demander_liste_projets()" style="html=1;verticalAlign=bottom;endArrow=block;rounded=0;entryX=0.045;entryY=0.339;entryDx=0;entryDy=0;entryPerimeter=0;edgeStyle=orthogonalEdgeStyle;" edge="1" parent="Q8M-9PWr-8_WYGchIMJM-13">
          <mxGeometry width="80" relative="1" as="geometry">
            <mxPoint x="-123.23000000000002" y="832.0022222222221" as="sourcePoint" />
            <mxPoint x="46.22000000000003" y="832.018" as="targetPoint" />
            <Array as="points">
              <mxPoint x="-55.23000000000002" y="832.78" />
            </Array>
          </mxGeometry>
        </mxCell>
        <mxCell id="Q8M-9PWr-8_WYGchIMJM-16" value="Afficher les projets" style="html=1;verticalAlign=bottom;endArrow=open;dashed=1;endSize=8;rounded=0;edgeStyle=orthogonalEdgeStyle;exitX=-0.122;exitY=0.616;exitDx=0;exitDy=0;exitPerimeter=0;" edge="1" source="Q8M-9PWr-8_WYGchIMJM-19" parent="1" target="Q8M-9PWr-8_WYGchIMJM-14">
          <mxGeometry relative="1" as="geometry">
            <mxPoint x="410" y="301" as="targetPoint" />
            <mxPoint x="524" y="261" as="sourcePoint" />
            <Array as="points">
              <mxPoint x="516" y="247" />
              <mxPoint x="516" y="247" />
            </Array>
          </mxGeometry>
        </mxCell>
        <mxCell id="Q8M-9PWr-8_WYGchIMJM-21" value="cliquer sur ajouter un projet" style="html=1;verticalAlign=bottom;endArrow=block;entryX=-0.004;entryY=0.17;rounded=0;edgeStyle=orthogonalEdgeStyle;entryDx=0;entryDy=0;entryPerimeter=0;" edge="1" target="Q8M-9PWr-8_WYGchIMJM-20" parent="1" source="Q8M-9PWr-8_WYGchIMJM-3">
          <mxGeometry relative="1" as="geometry">
            <mxPoint x="222.92857142857144" y="324.0000000000001" as="sourcePoint" />
            <Array as="points">
              <mxPoint x="241" y="289" />
              <mxPoint x="241" y="289" />
            </Array>
          </mxGeometry>
        </mxCell>
        <mxCell id="Q8M-9PWr-8_WYGchIMJM-22" value="afficher le formulaire" style="html=1;verticalAlign=bottom;endArrow=open;dashed=1;endSize=8;rounded=0;edgeStyle=orthogonalEdgeStyle;" edge="1" source="Q8M-9PWr-8_WYGchIMJM-23" parent="1" target="Q8M-9PWr-8_WYGchIMJM-20">
          <mxGeometry relative="1" as="geometry">
            <mxPoint x="272" y="400" as="targetPoint" />
            <Array as="points">
              <mxPoint x="494" y="330" />
              <mxPoint x="494" y="330" />
            </Array>
          </mxGeometry>
        </mxCell>
        <mxCell id="Q8M-9PWr-8_WYGchIMJM-24" value="demander_formulaire()" style="html=1;verticalAlign=bottom;endArrow=block;rounded=0;entryX=0.045;entryY=0.339;entryDx=0;entryDy=0;entryPerimeter=0;edgeStyle=orthogonalEdgeStyle;" edge="1" parent="1" source="Q8M-9PWr-8_WYGchIMJM-20" target="Q8M-9PWr-8_WYGchIMJM-23">
          <mxGeometry width="80" relative="1" as="geometry">
            <mxPoint x="361.9999999999999" y="235" as="sourcePoint" />
            <mxPoint x="533.92" y="234.51700000000005" as="targetPoint" />
            <Array as="points">
              <mxPoint x="438" y="307" />
            </Array>
          </mxGeometry>
        </mxCell>
        <mxCell id="Q8M-9PWr-8_WYGchIMJM-29" value="envoyer_formulaire()" style="html=1;verticalAlign=bottom;endArrow=block;rounded=0;entryX=-0.005;entryY=0.096;entryDx=0;entryDy=0;entryPerimeter=0;edgeStyle=orthogonalEdgeStyle;exitX=1.022;exitY=0.156;exitDx=0;exitDy=0;exitPerimeter=0;" edge="1" parent="1" source="Q8M-9PWr-8_WYGchIMJM-26" target="Q8M-9PWr-8_WYGchIMJM-30">
          <mxGeometry width="80" relative="1" as="geometry">
            <mxPoint x="352" y="439.09000000000003" as="sourcePoint" />
            <mxPoint x="525.1700000000001" y="439.00200000000007" as="targetPoint" />
            <Array as="points" />
          </mxGeometry>
        </mxCell>
        <mxCell id="Q8M-9PWr-8_WYGchIMJM-33" value="ajouter_informations()" style="html=1;verticalAlign=bottom;endArrow=block;rounded=0;edgeStyle=orthogonalEdgeStyle;entryX=-0.034;entryY=0.112;entryDx=0;entryDy=0;entryPerimeter=0;" edge="1" parent="1" target="Q8M-9PWr-8_WYGchIMJM-32">
          <mxGeometry width="80" relative="1" as="geometry">
            <mxPoint x="549" y="505" as="sourcePoint" />
            <mxPoint x="693" y="505" as="targetPoint" />
            <Array as="points">
              <mxPoint x="567" y="505" />
            </Array>
          </mxGeometry>
        </mxCell>
        <mxCell id="Q8M-9PWr-8_WYGchIMJM-35" value="Allez sur l&#39;onglet" style="html=1;verticalAlign=bottom;endArrow=block;entryX=0.023;entryY=0.113;rounded=0;entryDx=0;entryDy=0;entryPerimeter=0;edgeStyle=orthogonalEdgeStyle;" edge="1" parent="1">
          <mxGeometry relative="1" as="geometry">
            <mxPoint x="212.08333333333337" y="184" as="sourcePoint" />
            <mxPoint x="342.23" y="182.47500000000002" as="targetPoint" />
            <Array as="points">
              <mxPoint x="212" y="182" />
              <mxPoint x="236" y="182" />
            </Array>
          </mxGeometry>
        </mxCell>
        <mxCell id="Q8M-9PWr-8_WYGchIMJM-36" value="afficher un message de succÃ¨s&lt;br&gt;et afficher la liste des projets" style="html=1;verticalAlign=bottom;endArrow=open;dashed=1;endSize=8;rounded=0;edgeStyle=orthogonalEdgeStyle;exitX=-0.099;exitY=0.497;exitDx=0;exitDy=0;exitPerimeter=0;entryX=1.048;entryY=0.532;entryDx=0;entryDy=0;entryPerimeter=0;" edge="1" parent="1" source="Q8M-9PWr-8_WYGchIMJM-30" target="Q8M-9PWr-8_WYGchIMJM-26">
          <mxGeometry relative="1" as="geometry">
            <mxPoint x="351" y="530" as="targetPoint" />
            <mxPoint x="523" y="530" as="sourcePoint" />
            <Array as="points" />
          </mxGeometry>
        </mxCell>
        <mxCell id="Q8M-9PWr-8_WYGchIMJM-37" value="afficher un message d&#39;erreur" style="html=1;verticalAlign=bottom;endArrow=open;dashed=1;endSize=8;rounded=0;edgeStyle=orthogonalEdgeStyle;" edge="1" parent="1">
          <mxGeometry relative="1" as="geometry">
            <mxPoint x="369" y="616.03" as="targetPoint" />
            <mxPoint x="539" y="616" as="sourcePoint" />
            <Array as="points">
              <mxPoint x="511" y="616.03" />
              <mxPoint x="511" y="616.03" />
            </Array>
          </mxGeometry>
        </mxCell>
        <mxCell id="Q8M-9PWr-8_WYGchIMJM-39" value="" style="html=1;verticalAlign=bottom;endArrow=none;dashed=1;endSize=8;rounded=0;entryX=-0.001;entryY=0.704;entryDx=0;entryDy=0;entryPerimeter=0;exitX=1;exitY=0.699;exitDx=0;exitDy=0;exitPerimeter=0;edgeStyle=orthogonalEdgeStyle;endFill=0;" edge="1" parent="1">
          <mxGeometry relative="1" as="geometry">
            <mxPoint x="161.41499999999996" y="580.288" as="targetPoint" />
            <mxPoint x="747" y="578.553" as="sourcePoint" />
            <Array as="points">
              <mxPoint x="747" y="577" />
              <mxPoint x="161" y="577" />
            </Array>
          </mxGeometry>
        </mxCell>
        <mxCell id="Q8M-9PWr-8_WYGchIMJM-42" value="[Formulaire Invalide]" style="text;html=1;strokeColor=none;fillColor=none;align=center;verticalAlign=middle;whiteSpace=wrap;rounded=0;fontSize=16;fontColor=#FF5521;" vertex="1" parent="1">
          <mxGeometry x="247" y="585" width="60" height="30" as="geometry" />
        </mxCell>
        <mxCell id="Q8M-9PWr-8_WYGchIMJM-52" value="" style="html=1;points=[];perimeter=orthogonalPerimeter;fillColor=#dae8fc;strokeColor=#6c8ebf;" vertex="1" parent="1">
          <mxGeometry x="540" y="823" width="10" height="68" as="geometry" />
        </mxCell>
        <mxCell id="Q8M-9PWr-8_WYGchIMJM-53" value="envoyer_Informations()" style="html=1;verticalAlign=bottom;endArrow=block;rounded=0;edgeStyle=orthogonalEdgeStyle;" edge="1" parent="1" target="Q8M-9PWr-8_WYGchIMJM-52">
          <mxGeometry width="80" relative="1" as="geometry">
            <mxPoint x="371" y="833" as="sourcePoint" />
            <mxPoint x="520" y="834" as="targetPoint" />
            <Array as="points">
              <mxPoint x="458" y="833" />
              <mxPoint x="458" y="833" />
            </Array>
          </mxGeometry>
        </mxCell>
        <mxCell id="Q8M-9PWr-8_WYGchIMJM-54" value="afficher un message de succÃ¨s" style="html=1;verticalAlign=bottom;endArrow=open;dashed=1;endSize=8;rounded=0;edgeStyle=orthogonalEdgeStyle;exitX=-0.112;exitY=0.85;exitDx=0;exitDy=0;exitPerimeter=0;entryX=1.116;entryY=0.843;entryDx=0;entryDy=0;entryPerimeter=0;" edge="1" parent="1" target="Q8M-9PWr-8_WYGchIMJM-50">
          <mxGeometry x="-0.0006" y="-6" relative="1" as="geometry">
            <mxPoint x="386" y="877" as="targetPoint" />
            <mxPoint x="539.88" y="877.3499999999999" as="sourcePoint" />
            <Array as="points">
              <mxPoint x="386" y="877" />
            </Array>
            <mxPoint as="offset" />
          </mxGeometry>
        </mxCell>
        <mxCell id="Q8M-9PWr-8_WYGchIMJM-56" value="mise_a_jour_projet()" style="html=1;verticalAlign=bottom;endArrow=block;rounded=0;edgeStyle=orthogonalEdgeStyle;entryX=0.063;entryY=0.351;entryDx=0;entryDy=0;entryPerimeter=0;" edge="1" parent="1" target="Q8M-9PWr-8_WYGchIMJM-55">
          <mxGeometry width="80" relative="1" as="geometry">
            <mxPoint x="550" y="835" as="sourcePoint" />
            <mxPoint x="694.6299999999999" y="834.885" as="targetPoint" />
            <Array as="points" />
          </mxGeometry>
        </mxCell>
        <mxCell id="Q8M-9PWr-8_WYGchIMJM-58" value="demander_liste_projets()" style="html=1;verticalAlign=bottom;endArrow=block;rounded=0;entryX=0.045;entryY=0.339;entryDx=0;entryDy=0;entryPerimeter=0;edgeStyle=orthogonalEdgeStyle;" edge="1" parent="1">
          <mxGeometry width="80" relative="1" as="geometry">
            <mxPoint x="370.77" y="227.00222222222217" as="sourcePoint" />
            <mxPoint x="540.22" y="227.01800000000006" as="targetPoint" />
            <Array as="points">
              <mxPoint x="438.77" y="227.78" />
            </Array>
          </mxGeometry>
        </mxCell>
        <mxCell id="Q8M-9PWr-8_WYGchIMJM-51" value="faire une modification" style="html=1;verticalAlign=bottom;endArrow=block;rounded=0;edgeStyle=orthogonalEdgeStyle;entryX=0.009;entryY=0.143;entryDx=0;entryDy=0;entryPerimeter=0;" edge="1" parent="1" target="Q8M-9PWr-8_WYGchIMJM-50">
          <mxGeometry relative="1" as="geometry">
            <mxPoint x="212" y="814" as="sourcePoint" />
            <Array as="points" />
            <mxPoint x="358" y="814" as="targetPoint" />
          </mxGeometry>
        </mxCell>
        <mxCell id="Q8M-9PWr-8_WYGchIMJM-59" value="" style="html=1;points=[];perimeter=orthogonalPerimeter;fillColor=#dae8fc;strokeColor=#6c8ebf;" vertex="1" parent="1">
          <mxGeometry x="361" y="904" width="10" height="75" as="geometry" />
        </mxCell>
        <mxCell id="Q8M-9PWr-8_WYGchIMJM-60" value="cliquer sur annuler" style="html=1;verticalAlign=bottom;endArrow=block;rounded=0;edgeStyle=orthogonalEdgeStyle;" edge="1" parent="1">
          <mxGeometry relative="1" as="geometry">
            <mxPoint x="213" y="917" as="sourcePoint" />
            <Array as="points" />
            <mxPoint x="361" y="917" as="targetPoint" />
          </mxGeometry>
        </mxCell>
      </root>
    </mxGraphModel>
  </diagram>
</mxfile>
